solid CATIA STL
  facet normal -5.788171e-17  7.313537e-01 -6.819983e-01
    outer loop
      vertex  1.776357e-15  4.245262e-10 -1.981479e+01
      vertex -7.653669e+00  1.847759e+01  0.000000e+00
      vertex  7.653669e+00  1.847759e+01 -1.299145e-15
    endloop
  endfacet
  facet normal  7.313537e-01  4.056091e-16 -6.819983e-01
    outer loop
      vertex  1.847759e+01  7.653669e+00  7.327472e-15
      vertex  1.847759e+01 -7.653669e+00 -1.776357e-15
      vertex  1.776357e-15  4.245262e-10 -1.981479e+01
    endloop
  endfacet
  facet normal  5.171452e-01  5.171452e-01 -6.819984e-01
    outer loop
      vertex  1.776357e-15  4.245262e-10 -1.981479e+01
      vertex  7.653669e+00  1.847759e+01 -1.299145e-15
      vertex  1.847759e+01  7.653669e+00  7.327472e-15
    endloop
  endfacet
  facet normal -5.171452e-01  5.171452e-01 -6.819984e-01
    outer loop
      vertex  1.776357e-15  4.245262e-10 -1.981479e+01
      vertex -1.847759e+01  7.653669e+00 -5.773160e-15
      vertex -7.653669e+00  1.847759e+01  0.000000e+00
    endloop
  endfacet
  facet normal -7.313537e-01 -3.150973e-16 -6.819983e-01
    outer loop
      vertex  1.776357e-15  4.245262e-10 -1.981479e+01
      vertex -1.847759e+01 -7.653669e+00  1.299145e-15
      vertex -1.847759e+01  7.653669e+00 -5.773160e-15
    endloop
  endfacet
  facet normal  6.492641e-17  6.440263e-01  7.650034e-01
    outer loop
      vertex  7.653669e+00  1.847759e+01 -1.299145e-15
      vertex -7.653669e+00  1.847759e+01  0.000000e+00
      vertex  4.209518e+00  1.016267e+01  7.000000e+00
    endloop
  endfacet
  facet normal  0.000000e+00  6.440263e-01  7.650034e-01
    outer loop
      vertex  4.209518e+00  1.016267e+01  7.000000e+00
      vertex -7.653669e+00  1.847759e+01  0.000000e+00
      vertex -4.209518e+00  1.016267e+01  7.000000e+00
    endloop
  endfacet
  facet normal -5.171452e-01 -5.171452e-01 -6.819984e-01
    outer loop
      vertex  1.776357e-15  4.245262e-10 -1.981479e+01
      vertex -7.653669e+00 -1.847759e+01  1.299145e-15
      vertex -1.847759e+01 -7.653669e+00  1.299145e-15
    endloop
  endfacet
  facet normal -4.553953e-01  4.553953e-01  7.650034e-01
    outer loop
      vertex -7.653669e+00  1.847759e+01  0.000000e+00
      vertex -1.847759e+01  7.653669e+00 -5.773160e-15
      vertex -4.209518e+00  1.016267e+01  7.000000e+00
    endloop
  endfacet
  facet normal -4.553954e-01  4.553954e-01  7.650034e-01
    outer loop
      vertex -4.209518e+00  1.016267e+01  7.000000e+00
      vertex -1.847759e+01  7.653669e+00 -5.773160e-15
      vertex -1.016267e+01  4.209518e+00  7.000000e+00
    endloop
  endfacet
  facet normal  1.475729e-18 -7.313537e-01 -6.819983e-01
    outer loop
      vertex  1.776357e-15  4.245262e-10 -1.981479e+01
      vertex  7.653669e+00 -1.847759e+01  1.332268e-15
      vertex -7.653669e+00 -1.847759e+01  1.299145e-15
    endloop
  endfacet
  facet normal -6.440263e-01  3.534473e-16  7.650034e-01
    outer loop
      vertex -1.847759e+01  7.653669e+00 -5.773160e-15
      vertex -1.847759e+01 -7.653669e+00  1.299145e-15
      vertex -1.016267e+01  4.209518e+00  7.000000e+00
    endloop
  endfacet
  facet normal -6.440263e-01  0.000000e+00  7.650034e-01
    outer loop
      vertex -1.016267e+01  4.209518e+00  7.000000e+00
      vertex -1.847759e+01 -7.653669e+00  1.299145e-15
      vertex -1.016267e+01 -4.209518e+00  7.000000e+00
    endloop
  endfacet
  facet normal  5.171452e-01 -5.171452e-01 -6.819984e-01
    outer loop
      vertex  1.776357e-15  4.245262e-10 -1.981479e+01
      vertex  1.847759e+01 -7.653669e+00 -1.776357e-15
      vertex  7.653669e+00 -1.847759e+01  1.332268e-15
    endloop
  endfacet
  facet normal -4.553953e-01 -4.553953e-01  7.650034e-01
    outer loop
      vertex -1.847759e+01 -7.653669e+00  1.299145e-15
      vertex -7.653669e+00 -1.847759e+01  1.299145e-15
      vertex -1.016267e+01 -4.209518e+00  7.000000e+00
    endloop
  endfacet
  facet normal -4.553954e-01 -4.553954e-01  7.650034e-01
    outer loop
      vertex -1.016267e+01 -4.209518e+00  7.000000e+00
      vertex -7.653669e+00 -1.847759e+01  1.299145e-15
      vertex -4.209518e+00 -1.016267e+01  7.000000e+00
    endloop
  endfacet
  facet normal -1.655338e-18 -6.440263e-01  7.650034e-01
    outer loop
      vertex -7.653669e+00 -1.847759e+01  1.299145e-15
      vertex  7.653669e+00 -1.847759e+01  1.332268e-15
      vertex -4.209518e+00 -1.016267e+01  7.000000e+00
    endloop
  endfacet
  facet normal  0.000000e+00 -6.440263e-01  7.650034e-01
    outer loop
      vertex -4.209518e+00 -1.016267e+01  7.000000e+00
      vertex  7.653669e+00 -1.847759e+01  1.332268e-15
      vertex  4.209518e+00 -1.016267e+01  7.000000e+00
    endloop
  endfacet
  facet normal  4.553953e-01 -4.553953e-01  7.650034e-01
    outer loop
      vertex  7.653669e+00 -1.847759e+01  1.332268e-15
      vertex  1.847759e+01 -7.653669e+00 -1.776357e-15
      vertex  4.209518e+00 -1.016267e+01  7.000000e+00
    endloop
  endfacet
  facet normal  4.553954e-01 -4.553954e-01  7.650034e-01
    outer loop
      vertex  4.209518e+00 -1.016267e+01  7.000000e+00
      vertex  1.847759e+01 -7.653669e+00 -1.776357e-15
      vertex  1.016267e+01 -4.209518e+00  7.000000e+00
    endloop
  endfacet
  facet normal  6.440263e-01 -4.549753e-16  7.650034e-01
    outer loop
      vertex  1.847759e+01 -7.653669e+00 -1.776357e-15
      vertex  1.847759e+01  7.653669e+00  7.327472e-15
      vertex  1.016267e+01 -4.209518e+00  7.000000e+00
    endloop
  endfacet
  facet normal  6.440263e-01  -0.000000e+00  7.650034e-01
    outer loop
      vertex  1.016267e+01 -4.209518e+00  7.000000e+00
      vertex  1.847759e+01  7.653669e+00  7.327472e-15
      vertex  1.016267e+01  4.209518e+00  7.000000e+00
    endloop
  endfacet
  facet normal  4.553953e-01  4.553953e-01  7.650034e-01
    outer loop
      vertex  1.847759e+01  7.653669e+00  7.327472e-15
      vertex  7.653669e+00  1.847759e+01 -1.299145e-15
      vertex  1.016267e+01  4.209518e+00  7.000000e+00
    endloop
  endfacet
  facet normal  4.553954e-01  4.553954e-01  7.650034e-01
    outer loop
      vertex  1.016267e+01  4.209518e+00  7.000000e+00
      vertex  7.653669e+00  1.847759e+01 -1.299145e-15
      vertex  4.209518e+00  1.016267e+01  7.000000e+00
    endloop
  endfacet
  facet normal  -0.000000e+00  0.000000e+00  1.000000e+00
    outer loop
      vertex  4.209518e+00  1.016267e+01  7.000000e+00
      vertex -4.209518e+00  1.016267e+01  7.000000e+00
      vertex  1.016267e+01  4.209518e+00  7.000000e+00
    endloop
  endfacet
  facet normal  0.000000e+00  0.000000e+00  9.999999e-01
    outer loop
      vertex  1.016267e+01  4.209518e+00  7.000000e+00
      vertex -4.209518e+00  1.016267e+01  7.000000e+00
      vertex -1.016267e+01  4.209518e+00  7.000000e+00
    endloop
  endfacet
  facet normal  -0.000000e+00  0.000000e+00  1.000000e+00
    outer loop
      vertex  1.016267e+01  4.209518e+00  7.000000e+00
      vertex -1.016267e+01  4.209518e+00  7.000000e+00
      vertex  1.016267e+01 -4.209518e+00  7.000000e+00
    endloop
  endfacet
  facet normal  0.000000e+00  0.000000e+00  1.000000e+00
    outer loop
      vertex  1.016267e+01 -4.209518e+00  7.000000e+00
      vertex -1.016267e+01  4.209518e+00  7.000000e+00
      vertex -1.016267e+01 -4.209518e+00  7.000000e+00
    endloop
  endfacet
  facet normal  -0.000000e+00  0.000000e+00  9.999999e-01
    outer loop
      vertex  1.016267e+01 -4.209518e+00  7.000000e+00
      vertex -1.016267e+01 -4.209518e+00  7.000000e+00
      vertex  4.209518e+00 -1.016267e+01  7.000000e+00
    endloop
  endfacet
  facet normal  0.000000e+00  0.000000e+00  1.000000e+00
    outer loop
      vertex  4.209518e+00 -1.016267e+01  7.000000e+00
      vertex -1.016267e+01 -4.209518e+00  7.000000e+00
      vertex -4.209518e+00 -1.016267e+01  7.000000e+00
    endloop
  endfacet
endsolid CATIA STL
